<?xml version="1.0" encoding="iso-8859-1"?>
<!-- Generator: Adobe Illustrator 16.0.0, SVG Export Plug-In . SVG Version: 6.00 Build 0)  -->
<!DOCTYPE svg PUBLIC "-//W3C//DTD SVG 1.1//EN" "http://www.w3.org/Graphics/SVG/1.1/DTD/svg11.dtd">
<svg version="1.1" id="Capa_1" xmlns="http://www.w3.org/2000/svg" xmlns:xlink="http://www.w3.org/1999/xlink" x="0px" y="0px"
	 width="290.26px" height="290.26px" viewBox="0 0 290.26 290.26" style="enable-background:new 0 0 290.26 290.26;"
	 xml:space="preserve">
<g>
	<path d="M260.164,32.246c0-7.716-11.013-13.971-24.596-13.971h-51.725c0,0,0-4.095,0-9.139c0-5.047-11.013-9.137-24.596-9.137
		h-21.762c-13.583,0-24.596,4.096-24.596,9.137v9.139H54.692c-13.583,0-24.596,6.26-24.596,13.971v13.97h230.067
		C260.164,46.216,260.164,39.962,260.164,32.246z"/>
	<path d="M69.749,290.26h150.765c13.583,0,24.596-11.013,24.596-24.596V56.971H45.153v208.693
		C45.153,279.247,56.166,290.26,69.749,290.26z M196.423,86.958h24.596v167.044h-24.596V86.958z M132.838,86.958h24.596v167.044
		h-24.596V86.958z M69.245,86.958H93.84v167.044H69.245V86.958z"/>
</g>
<g>
</g>
<g>
</g>
<g>
</g>
<g>
</g>
<g>
</g>
<g>
</g>
<g>
</g>
<g>
</g>
<g>
</g>
<g>
</g>
<g>
</g>
<g>
</g>
<g>
</g>
<g>
</g>
<g>
</g>
</svg>
